<?xml version="1.0" encoding="UTF-8" standalone="no"?><!DOCTYPE svg PUBLIC "-//W3C//DTD SVG 1.1//EN" "http://www.w3.org/Graphics/SVG/1.1/DTD/svg11.dtd"><svg width="100%" height="100%" viewBox="0 0 2345 2160" version="1.1" xmlns="http://www.w3.org/2000/svg" xmlns:xlink="http://www.w3.org/1999/xlink" xml:space="preserve" xmlns:serif="http://www.serif.com/" style="fill-rule:evenodd;clip-rule:evenodd;stroke-linecap:square;stroke-miterlimit:2;"><rect id="Artboard1" x="0" y="0" width="2344.19" height="2160" style="fill:none;"/><clipPath id="_clip1"><rect x="0" y="0" width="2344.19" height="2160"/></clipPath><g clip-path="url(#_clip1)"><path d="M1172.09,46.104l885.821,516.948l0,1033.9l-885.821,516.948l-885.821,-516.948l-0,-1033.9l885.821,-516.948Z" style="fill:#00001f;"/><path d="M1172.09,214.515l741.53,432.743l-0,865.484l-741.53,432.743l-741.529,-432.743l-0,-865.484l741.529,-432.743Z" style="fill:#fff;"/><g><path d="M816.988,959.417l6.316,107.935l277.643,-43.4" style="fill:none;stroke:#fff;stroke-width:76.14px;"/><path d="M1083.62,964.054l-425.047,-31.034l-2.365,-111.606" style="fill:none;stroke:#fff;stroke-width:76.14px;"/><path d="M1077.94,905.309l-480.704,-101.414l1.325,-119.767" style="fill:none;stroke:#fff;stroke-width:76.14px;"/><path d="M1076.91,859.607l-514.993,-193.78l-3.753,-114.222" style="fill:none;stroke:#fff;stroke-width:76.14px;"/><path d="M489.977,237.552l7.592,124.577l28.653,27.705l-2.021,132.886l535.433,267.377l139.873,-108.871l-709.53,-443.674Z" style="fill:#fff;"/><path d="M1092.46,805.337l-568.955,-282.963l-3.764,-135.774" style="fill:none;stroke:#fff;stroke-width:76.14px;"/><path d="M1116.7,745.49l-624.062,-384.739l-16.237,-146.236l744.74,474.141" style="fill:none;stroke:#fff;stroke-width:76.14px;stroke-miterlimit:3;"/></g><g><path d="M816.988,959.417l6.316,107.935l277.643,-43.4" style="fill:none;stroke:#00001f;stroke-width:32.89px;"/><path d="M1083.62,964.054l-425.047,-31.034l-2.365,-111.606" style="fill:none;stroke:#00001f;stroke-width:32.89px;"/><path d="M1077.94,905.309l-480.704,-101.414l1.325,-119.767" style="fill:none;stroke:#00001f;stroke-width:32.89px;"/><path d="M1076.91,859.607l-514.993,-193.78l-3.753,-114.222" style="fill:none;stroke:#00001f;stroke-width:32.89px;"/><path d="M1092.46,805.337l-568.955,-282.963l-3.764,-135.774" style="fill:none;stroke:#00001f;stroke-width:32.89px;"/><path d="M1116.7,745.49l-624.062,-384.739l-16.237,-146.236l744.74,474.141" style="fill:none;stroke:#00001f;stroke-width:32.89px;stroke-miterlimit:3;"/></g><g><path d="M1410.31,1406.41l-105.042,25.614l-39.926,-278.165" style="fill:none;stroke:#fff;stroke-width:76.14px;"/><path d="M1327.69,1152.87l154.314,397.26l107.393,-30.466" style="fill:none;stroke:#fff;stroke-width:76.14px;"/><path d="M1385.52,1141.07l237.92,429.831l114.113,-36.388" style="fill:none;stroke:#fff;stroke-width:76.14px;"/><path d="M1429.51,1128.65l336.281,435.527l110.301,-29.908" style="fill:none;stroke:#fff;stroke-width:76.14px;"/><path d="M2196.33,1507.36l-121.326,29.274l-34.89,-19.269l-126.451,40.9l-412.636,-433.486l63.067,-165.65l632.236,548.231Z" style="fill:#fff;"/><path d="M1476.83,1097.86l437.367,460.964l130.909,-36.217" style="fill:none;stroke:#fff;stroke-width:76.14px;"/><path d="M1526.94,1057.14l550.828,483.802l144.569,-27.359l-671.689,-572.959" style="fill:none;stroke:#fff;stroke-width:76.14px;stroke-miterlimit:3;"/></g><g><path d="M1410.31,1406.41l-105.042,25.614l-39.926,-278.165" style="fill:none;stroke:#00001f;stroke-width:32.89px;"/><path d="M1327.69,1152.87l154.314,397.26l107.393,-30.466" style="fill:none;stroke:#00001f;stroke-width:32.89px;"/><path d="M1385.52,1141.07l237.92,429.831l114.113,-36.388" style="fill:none;stroke:#00001f;stroke-width:32.89px;"/><path d="M1429.51,1128.65l336.281,435.527l110.301,-29.908" style="fill:none;stroke:#00001f;stroke-width:32.89px;"/><path d="M1476.83,1097.86l437.367,460.964l130.909,-36.217" style="fill:none;stroke:#00001f;stroke-width:32.89px;"/><path d="M1526.94,1057.14l550.828,483.802l144.569,-27.359l-671.689,-572.959" style="fill:none;stroke:#00001f;stroke-width:32.89px;stroke-miterlimit:3;"/></g><path d="M1460.38,752.93c93.595,98.324 89.755,254.137 -8.569,347.732c-98.324,93.594 -254.137,89.754 -347.731,-8.569c-93.595,-98.324 -89.755,-254.137 8.569,-347.732c98.323,-93.594 254.137,-89.755 347.731,8.569Z" style="fill:#fff;"/><clipPath id="_clip2"><path d="M1460.38,752.93c93.595,98.324 89.755,254.137 -8.569,347.732c-98.324,93.594 -254.137,89.754 -347.731,-8.569c-93.595,-98.324 -89.755,-254.137 8.569,-347.732c98.323,-93.594 254.137,-89.755 347.731,8.569Z"/></clipPath><g clip-path="url(#_clip2)"><path d="M1307.85,898.125l8.31,34.379l-25.618,24.387l-33.929,-9.993l-8.309,-34.38l25.618,-24.386l33.928,9.993Z" style="fill:#fff;"/><path d="M1260.29,897.386l-116.97,244.987l-187.674,-218.934l304.644,-26.053Zm54.513,18.439l-153.514,-223.55l283.273,-53.306l-129.759,276.856Zm-43.07,38.234l270.368,-21.173l-95.484,271.975l-174.884,-250.802Z" style="fill:#a1a2c1;"/><path d="M1425.16,722.342c110.477,78.883 136.127,232.618 57.244,343.095c-78.883,110.476 -232.618,136.126 -343.095,57.243c-110.476,-78.882 -136.126,-232.618 -57.243,-343.094c78.883,-110.476 232.618,-136.126 343.094,-57.244Z" style="fill:none;stroke:#fff;stroke-width:100px;stroke-linecap:round;stroke-linejoin:round;stroke-miterlimit:1;"/><path d="M1265.43,893.694l-161.124,218.494l-142.959,-250.432l304.083,31.938Zm50.051,28.401l-108.542,-248.516l288.242,1.141l-179.7,247.375Zm-49.515,29.413l269.503,30.258l-145.12,249.054l-124.383,-279.312Z" style="fill:#43436b;"/><path d="M1460.38,752.93c93.595,98.324 89.755,254.137 -8.569,347.732c-98.324,93.594 -254.137,89.754 -347.731,-8.569c-93.595,-98.324 -89.755,-254.137 8.569,-347.732c98.323,-93.594 254.137,-89.755 347.731,8.569Z" style="fill:none;stroke:#fff;stroke-width:66.56px;stroke-linecap:round;stroke-linejoin:round;stroke-miterlimit:1;"/><path d="M1270.69,891.212l-196.635,187.177l-97.274,-271.461l293.909,84.284Z" style="fill:#00001f;"/><path d="M1315.04,927.877l-63.714,-263.594l283.661,51.203l-219.947,212.391Z" style="fill:#00001f;"/><path d="M1261.17,948.24l260.147,76.622l-186.184,220.053l-73.963,-296.675Z" style="fill:#00001f;"/><path d="M1460.38,752.93c93.595,98.324 89.755,254.137 -8.569,347.732c-98.324,93.594 -254.137,89.754 -347.731,-8.569c-93.595,-98.324 -89.755,-254.137 8.569,-347.732c98.323,-93.594 254.137,-89.755 347.731,8.569Z" style="fill:none;stroke:#fff;stroke-width:50.72px;stroke-linecap:round;stroke-linejoin:round;stroke-miterlimit:1;"/></g><path d="M1460.38,752.93c93.595,98.324 89.755,254.137 -8.569,347.732c-98.324,93.594 -254.137,89.754 -347.731,-8.569c-93.595,-98.324 -89.755,-254.137 8.569,-347.732c98.323,-93.594 254.137,-89.755 347.731,8.569Z" style="fill:none;stroke:#00001f;stroke-width:30px;stroke-linecap:round;stroke-linejoin:round;stroke-miterlimit:1;"/><path d="M1304.4,901.408l7.191,29.751l-22.17,21.104l-29.361,-8.648l-7.192,-29.752l22.171,-21.103l29.361,8.648Z" style="fill:#00001f;"/><g><path d="M948.121,1256.11c-0.005,0.006 -0.039,0.022 -0.092,0.045c-0.12,0.053 -0.079,0.035 0.092,-0.045Zm0,0c0.03,-0.034 -0.948,0.293 -4.868,1.618c-102.831,34.759 -140.563,106.363 -183.202,186.457c-41.061,77.129 -83.421,154.969 -190,189.809c-1.177,0.385 -1.175,0.391 -1.28,0.415c-0.678,0.156 -0.694,0.039 -1.375,0.195c31.2,-16.439 68.88,-41.818 99.217,-90.234c56.484,-90.145 56.305,-208.637 144.212,-305.615c33.089,-36.504 69.372,-59.463 97.255,-74.273c3.25,-1.727 8.869,-2.924 9.663,-3.093c3.2,-0.681 6.487,-1.022 9.759,-1.057c1.535,-0.016 9.695,-0.102 18.864,3.506c9.169,3.609 15.082,9.234 16.194,10.292c2.371,2.255 4.544,4.744 6.421,7.424c0.01,0.014 4.945,8.804 4.947,8.812c1.02,3.194 2.361,6.304 3.058,9.584c0.68,3.195 1.018,6.477 1.05,9.743c0.016,1.534 0.097,9.681 -3.511,18.851c-3.609,9.169 -9.229,15.093 -10.286,16.207c-2.253,2.375 -4.74,4.553 -7.417,6.437c-3.507,2.468 -7.821,4.511 -8.701,4.922Z" style="fill:#fff;"/><path d="M561.865,1686.43c34.448,-1.158 93.366,-5.844 142.273,-39.92c111.749,-77.861 95.782,-255.364 199.332,-375.773c27.509,-31.989 57.824,-53.29 86.935,-68.193c3.45,-1.766 8.858,-2.918 9.651,-3.087c3.2,-0.681 6.487,-1.022 9.759,-1.057c1.535,-0.016 9.695,-0.102 18.864,3.506c9.169,3.609 15.082,9.234 16.194,10.292c2.371,2.255 4.544,4.744 6.421,7.424c0.01,0.014 4.945,8.804 4.947,8.812c1.02,3.194 2.361,6.304 3.058,9.584c0.679,3.195 1.017,6.476 1.05,9.742c0.015,1.534 0.097,9.681 -3.512,18.851c-3.609,9.169 -9.228,15.093 -10.285,16.207c-2.254,2.375 -4.74,4.554 -7.418,6.438c-4.869,3.427 -4.818,3.613 -10.461,5.525c-77.071,26.118 -115.575,90.751 -154.792,167.936c-56.78,111.753 -108.658,235.415 -284.731,226.101c-13.124,-0.695 -23.431,-1.944 -27.285,-2.388Z" style="fill:#fff;"/></g><g><path d="M594.034,1621.7c22.172,-12.14 57.567,-33.776 93.444,-79.095c91.551,-115.645 111.43,-288.068 294.64,-422.246c2.713,-1.987 2.634,-2.258 5.918,-2.977c4.975,-1.09 8.639,1.238 9.275,1.642c4.435,2.818 5.389,7.187 5.555,7.945c1.084,4.968 -1.239,8.638 -1.642,9.274c-1.78,2.811 -2.001,2.65 -4.76,4.511c-209.769,141.413 -213.407,343.64 -352.991,450.403c-22.708,17.369 -42.377,27.027 -49.439,30.543Z" style="fill:#00001f;"/><path d="M775.471,1702.41c67.496,-50.903 135.826,-106.589 193.442,-177.349c67.581,-82.998 114.55,-178.895 170.236,-319.58c0.848,-2.142 2.545,-3.799 2.829,-4.076c0.539,-0.527 3.654,-3.568 8.715,-3.572c0.773,-0.001 5.217,-0.005 8.909,3.728c0.53,0.536 3.581,3.622 3.572,8.716c-0.001,0.396 -0.005,2.69 -0.965,4.861c-110.213,249.115 -183.462,345.739 -379.758,482.43l-6.98,4.842Z" style="fill:#00001f;"/><path d="M606.3,1684.14c30.199,0.146 74.571,-6.185 126.776,-49.587c128.853,-107.127 213.801,-361.499 346.46,-502.214c2.578,-2.735 2.493,-2.944 5.957,-4.4c1.769,-0.743 3.725,-1.12 5.643,-1.133c1.919,-0.014 3.88,0.335 5.659,1.054c0.016,0.006 4.981,3.246 4.985,3.253c1.102,1.638 2.537,3.096 3.3,4.916c0.743,1.768 1.118,3.723 1.131,5.64c0.014,1.92 -0.334,3.882 -1.051,5.662c-1.385,3.444 -1.586,3.367 -4.24,5.967c-173.231,169.648 -282.964,539.213 -492.77,530.924c-0.148,-0.005 -0.147,-0.006 -1.85,-0.082Z" style="fill:#00001f;"/></g></g></svg>