<?xml version="1.0" encoding="UTF-8" standalone="no"?><!DOCTYPE svg PUBLIC "-//W3C//DTD SVG 1.1//EN" "http://www.w3.org/Graphics/SVG/1.1/DTD/svg11.dtd"><svg width="100%" height="100%" viewBox="0 0 596 842" version="1.1" xmlns="http://www.w3.org/2000/svg" xmlns:xlink="http://www.w3.org/1999/xlink" xml:space="preserve" xmlns:serif="http://www.serif.com/" style="fill-rule:evenodd;clip-rule:evenodd;stroke-linecap:round;stroke-linejoin:round;stroke-miterlimit:1.5;"><rect x="7.075" y="7.08" width="581.082" height="827.731" style="fill:none;"/><clipPath id="_clip1"><rect x="7.075" y="7.08" width="581.082" height="827.731"/></clipPath><g clip-path="url(#_clip1)"><rect x="-6.561" y="-1.56" width="614.795" height="850.596" style="fill:url(#_Linear2);"/></g><g><g><g><path d="M-488.251,588.148c195.88,-371.033 479.36,-654.513 850.393,-850.394" style="fill:none;stroke:#474775;stroke-width:1px;"/><path d="M-435.373,641.027c195.888,-371.048 479.375,-654.521 850.394,-850.394" style="fill:none;stroke:#474775;stroke-width:1px;"/><path d="M-383.325,693.075c195.883,-371.039 479.365,-654.517 850.394,-850.394" style="fill:none;stroke:#474775;stroke-width:1px;"/><path d="M-332.108,744.291c195.88,-371.032 479.359,-654.513 850.393,-850.393" style="fill:none;stroke:#474775;stroke-width:1px;"/><path d="M-281.722,794.677c195.871,-371.017 479.344,-654.505 850.393,-850.393" style="fill:none;stroke:#474775;stroke-width:1px;"/><path d="M-232.168,844.232c195.872,-371.016 479.344,-654.504 850.394,-850.394" style="fill:none;stroke:#474775;stroke-width:1px;"/><path d="M-183.444,892.956c195.883,-371.038 479.366,-654.516 850.394,-850.394" style="fill:none;stroke:#474775;stroke-width:1px;"/><path d="M-135.55,940.849c195.883,-371.039 479.366,-654.516 850.393,-850.394" style="fill:none;stroke:#474775;stroke-width:1px;"/><path d="M-88.488,987.911c195.875,-371.024 479.35,-654.508 850.393,-850.393" style="fill:none;stroke:#474775;stroke-width:1px;"/><path d="M-42.257,1034.14c195.875,-371.023 479.35,-654.508 850.393,-850.393" style="fill:none;stroke:#474775;stroke-width:1px;"/><path d="M3.143,1079.54c195.864,-371.004 479.33,-654.498 850.394,-850.394" style="fill:none;stroke:#474775;stroke-width:1px;"/><path d="M-542.164,534.235c195.888,-371.048 479.375,-654.521 850.393,-850.393" style="fill:none;stroke:#474775;stroke-width:1px;"/></g><g><path d="M-505.273,360.163c205.662,205.662 411.325,411.324 616.987,616.986" style="fill:none;stroke:#474775;stroke-width:1px;"/><path d="M-478.796,318.752c205.662,205.662 411.324,411.325 616.987,616.987" style="fill:none;stroke:#474775;stroke-width:1px;"/><path d="M-451.483,278.179c205.663,205.662 411.325,411.324 616.987,616.987" style="fill:none;stroke:#474775;stroke-width:1px;"/><path d="M-423.332,238.443c205.663,205.662 411.325,411.324 616.987,616.987" style="fill:none;stroke:#474775;stroke-width:1px;"/><path d="M-394.343,199.544c205.662,205.662 411.324,411.324 616.987,616.987" style="fill:none;stroke:#474775;stroke-width:1px;"/><path d="M-364.518,161.482c205.662,205.662 411.325,411.325 616.987,616.987" style="fill:none;stroke:#474775;stroke-width:1px;"/><path d="M-333.855,124.258c205.662,205.662 411.324,411.324 616.986,616.986" style="fill:none;stroke:#474775;stroke-width:1px;"/><path d="M-302.356,87.87c205.663,205.663 411.325,411.325 616.987,616.987" style="fill:none;stroke:#474775;stroke-width:1px;"/><path d="M-270.019,52.32c205.663,205.662 411.325,411.325 616.987,616.987" style="fill:none;stroke:#474775;stroke-width:1px;"/><path d="M-236.845,17.607c205.663,205.663 411.325,411.325 616.987,616.987" style="fill:none;stroke:#474775;stroke-width:1px;"/><path d="M-202.833,-16.268c205.662,205.662 411.324,411.324 616.987,616.986" style="fill:none;stroke:#474775;stroke-width:1px;"/><path d="M-167.985,-49.307c205.663,205.662 411.325,411.325 616.987,616.987" style="fill:none;stroke:#474775;stroke-width:1px;"/><path d="M-132.299,-81.508c205.662,205.662 411.325,411.324 616.987,616.986" style="fill:none;stroke:#474775;stroke-width:1px;"/><path d="M-95.776,-112.873c205.662,205.663 411.324,411.325 616.987,616.987" style="fill:none;stroke:#474775;stroke-width:1px;"/><path d="M-58.416,-143.4c205.662,205.663 411.325,411.325 616.987,616.987" style="fill:none;stroke:#474775;stroke-width:1px;"/><path d="M-20.219,-173.089c205.663,205.662 411.325,411.324 616.987,616.987" style="fill:none;stroke:#474775;stroke-width:1px;"/><path d="M66.211,-226.036c205.323,205.323 410.646,410.646 615.969,615.969" style="fill:none;stroke:#474775;stroke-width:1px;"/><path d="M109.861,-249.593c205.114,205.115 410.228,410.229 615.342,615.343" style="fill:none;stroke:#474775;stroke-width:1px;"/><path d="M153.008,-276.861c205.114,205.114 410.228,410.228 615.342,615.342" style="fill:none;stroke:#474775;stroke-width:1px;"/><path d="M178.25,-309.158c205.787,205.787 411.575,411.575 617.362,617.362" style="fill:none;stroke:#474775;stroke-width:1px;"/><path d="M18.816,-201.942c205.662,205.662 411.324,411.325 616.987,616.987" style="fill:none;stroke:#474775;stroke-width:1px;"/></g></g></g><path d="M603.78,-10.064l-0,860.458l-612.284,-0l0,-858.898l612.284,-1.56Zm-15.623,17.144l-581.082,-0l-0,827.73l581.082,0l0,-827.73Z" style="fill:#212140;"/><path d="M604.781,-10.064l0,860.458c0,0.553 -0.448,1.001 -1.001,1.001l-612.284,0c-0.553,0 -1.002,-0.448 -1.002,-1.001l0,-858.898c0,-0.552 0.447,-1 1,-1.002l612.283,-1.559c0.266,-0.001 0.521,0.104 0.71,0.292c0.188,0.188 0.294,0.443 0.294,0.709Zm-1.001,0l-612.284,1.56l0,858.898l612.284,-0l-0,-860.458Zm-15.623,17.144l0,827.73l-581.082,0l-0,-827.73l581.082,-0Zm-1.001,1.001c-0,0 -579.08,0 -579.08,0c0,32.114 0,825.728 0,825.728c0,-0 579.08,-0 579.08,-0l-0,-825.728Z" style="fill:#fff;"/><path d="M536.12,636.86l9.176,-1.802l39.328,38.344l10.652,57.4l-39.778,42.177l3.112,11.443l4.097,71.487l-84.596,1.024l-62.367,-4.283l9.423,-78.86l0.153,-0l-24.56,-15.914l0,-0.379l-222.793,47.107c-4.567,1.288 -8.472,1.895 -11.703,1.853l-37.411,-36.924c-12.321,-15.548 58.81,-99.338 116.443,-162.413l9.398,-87.74c-0.847,-3.013 -3.666,-16.355 8.111,-29.558c13.383,-15.004 27.101,-11.577 27.101,-11.577l0.436,0.379l84.585,-2.17l-0,-0.149c109.352,-100.21 175.613,-135.055 183.627,-122.434l0.037,0.061l34.866,30.91c1.618,3.676 2.294,10.326 -2.011,22.302l-56.15,231.064l0.824,-1.348Zm-179.679,-143.373c2.557,-2.409 5.092,-4.784 7.606,-7.127l-0.552,-0.154l-52.151,0.46l-0,0.106l45.097,6.715Zm-71.281,70.881c-1.69,1.79 0.05,0.24 0.05,0.24l-0.05,-0.24Zm-0,-0c0.043,-0.047 0.089,-0.095 0.137,-0.146c12.434,-13.069 21.855,-22.721 26.13,-26.995c12.436,-12.437 24.47,-24.189 36.086,-35.273c2.989,-2.853 -0.503,-0.215 -0.503,-0.215l-47.814,-6.234c0,-0 0.747,-5.071 -0.398,-0.044c-1.141,5.012 -3.576,11.452 -8.751,17.178c-3.986,4.411 -8.923,7.857 -13.366,10.388l-0.279,-0.492l8.758,41.833Zm-5.853,6.17l-9.815,-43.795l-0.308,-0c-2.835,1.24 -4.296,1.688 -4.296,1.688l-0.085,-0.071l-0.254,0.071l-7.474,65.175l-0.039,0.744c7.936,-8.578 15.455,-16.603 22.271,-23.812Z" style="fill:#212140;"/><g><path d="M239.356,659.765c-59.016,70.212 -61.298,89.796 -49.21,84.589m96.9,-138.611c-13.596,14.813 -25.543,28.221 -36.008,40.325m135.401,-139.206c-21.025,18.362 -40.087,36.19 -53.934,50.583c-14.559,15.131 -27.791,29.162 -39.801,42.155m117.771,-113.24c-5.192,4.327 -10.343,8.683 -15.408,13.032m141.758,-95.828c-15.586,-1.484 -64.305,32.316 -112.629,71.514" style="fill:none;stroke:#d5e0f4;stroke-width:1.09px;"/><path d="M466.707,798.924l-43.819,-26.71l-22.128,-14.338m135.36,-121.016l9.176,-1.802l39.328,38.344l10.652,57.4l-39.969,42.38" style="fill:none;stroke:#d5e0f4;stroke-width:2.17px;"/><path d="M466.707,798.924l7.551,0.879" style="fill:none;stroke:#d5e0f4;stroke-width:2.2px;"/><path d="M529.934,683.644l-12.388,0l-23.146,11.786l0,30.224l-10.241,52.259l-12.495,27.566l-6.35,13.784l-26.755,-0.205l-2.741,-32.364l-10.651,-12.904l-9.423,78.86l62.367,4.283" style="fill:none;stroke:#d5e0f4;stroke-width:2.17px;"/><path d="M435.818,786.694l7.946,-1.56" style="fill:none;stroke:#d5e0f4;stroke-width:2.17px;"/><path d="M562.707,855.909l-4.097,-71.487l-13.314,-48.955l-0.819,-48.136l-14.543,-3.687l-24.58,11.786l-0.205,40.446l-8.398,46.498l-18.64,74.559l84.596,-1.024Z" style="fill:none;stroke:#d5e0f4;stroke-width:2.17px;"/><path d="M174.284,805.383l256.83,-54.304" style="fill:none;stroke:#d5e0f4;stroke-width:2.17px;"/><path d="M534.212,642.668l57.328,-235.913" style="fill:none;stroke:#d5e0f4;stroke-width:2.17px;"/><path d="M534.212,642.668c-3.408,18.289 -81.035,100.868 -103.098,108.411" style="fill:none;stroke:#d5e0f4;stroke-width:2.17px;"/><path d="M503.902,685.314l-21.022,-133.189" style="fill:none;stroke:#d5e0f4;stroke-width:2.17px;"/><path d="M514.628,672.226l6.524,-162.964" style="fill:none;stroke:#d5e0f4;stroke-width:2.17px;"/><path d="M525.06,659.036l27.516,-187.932" style="fill:none;stroke:#d5e0f4;stroke-width:2.17px;"/><path d="M493.282,696.873l-53.15,-99.623" style="fill:none;stroke:#d5e0f4;stroke-width:2.17px;"/><path d="M481.455,708.365l-87.001,-65.697" style="fill:none;stroke:#d5e0f4;stroke-width:2.17px;"/><path d="M467.915,722.124l-118.934,-36.81" style="fill:none;stroke:#d5e0f4;stroke-width:2.17px;"/><path d="M458.754,730.936l-153.976,-9.311" style="fill:none;stroke:#d5e0f4;stroke-width:2.17px;"/><path d="M447.976,740.15l-184,14.003" style="fill:none;stroke:#d5e0f4;stroke-width:2.17px;"/><path d="M439.096,818.814l33.743,-18.041" style="fill:none;stroke:#d5e0f4;stroke-width:2.17px;"/><path d="M466.341,725.31l23.432,22.122m62.106,12.618l39.819,-39.782l-64.222,-63.618" style="fill:none;stroke:#d5e0f4;stroke-width:2.17px;"/><path d="M433.403,750.873l39.436,42.605l3.497,-0.491" style="fill:none;stroke:#d5e0f4;stroke-width:2.17px;"/><path d="M374.927,476.305c109.352,-100.21 175.613,-135.055 183.627,-122.434m-202.156,139.657c2.571,-2.423 5.121,-4.812 7.649,-7.168m-78.75,77.862c12.434,-13.069 21.855,-22.721 26.13,-26.995c12.436,-12.437 24.47,-24.189 36.086,-35.273m-90.477,92.396c7.946,-8.59 15.475,-16.624 22.298,-23.841m-150.481,199.024c-12.328,-15.556 58.883,-99.425 116.532,-162.511" style="fill:none;stroke:#d5e0f4;stroke-width:2.17px;"/><path d="M299.196,495.505l136.622,17.813l0.979,-7.866l-125.453,-18.68" style="fill:none;stroke:#d5e0f4;stroke-width:2.17px;"/><path d="M254.722,519.12l-20.441,190.83m10.431,-8.532l19.837,-172.987" style="fill:none;stroke:#d5e0f4;stroke-width:2.17px;"/><path d="M480.26,473.751l-190.213,4.881l9.163,8.14l171.277,-1.508" style="fill:none;stroke:#d5e0f4;stroke-width:2.17px;"/><path d="M276.681,523.027c4.443,-2.531 9.38,-5.977 13.366,-10.388c10.365,-11.469 9.739,-25.798 9.739,-25.798l-9.88,-8.596c-0,-0 -13.718,-3.427 -27.101,11.577c-13.384,15.004 -7.917,30.187 -7.917,30.187l10,8.422c-0,-0 1.461,-0.448 4.296,-1.688" style="fill:none;stroke:#d5e0f4;stroke-width:2.17px;"/><path d="M290.047,478.632c0.053,5.947 -30.05,39.173 -35.159,41.377" style="fill:none;stroke:#d5e0f4;stroke-width:2.17px;"/><path d="M269.184,525.297c-1.81,1.517 -3.368,2.614 -4.535,3.134m34.526,-42.071c0.625,4.637 -12.651,21.741 -23.431,32.76" style="fill:none;stroke:#d5e0f4;stroke-width:2.17px;"/><path d="M298.457,655.983l-33.025,-147.359l9.727,7.971l28.161,134.524" style="fill:none;stroke:#d5e0f4;stroke-width:2.17px;"/><path d="M438.559,746.983l-207.561,30.93" style="fill:none;stroke:#d5e0f4;stroke-width:2.17px;"/><path d="M166.264,806.457c30.405,0.4 120.431,-56.731 260.862,-197.162c166.627,-166.626 171.739,-212.163 166.331,-224.453l-35.821,-31.757c-0,-0 0.527,0.453 0.918,0.786c9.463,14.904 -58.819,107.153 -170.197,218.531c-65.663,65.662 -240.574,221.021 -259.504,197.131l37.411,36.924" style="fill:none;stroke:#d5e0f4;stroke-width:2.17px;"/></g><path d="M-8.504,7.08l596.661,-0l-71.263,71.262l-525.398,0" style="fill:#fff;"/><clipPath id="_clip3"><path d="M-8.504,7.08l596.661,-0l-71.263,71.262l-525.398,0"/></clipPath><g clip-path="url(#_clip3)"><g><path d="M480.994,54.538l0,-32.12l10.296,-0c2.288,-0 4.268,0.396 5.94,1.188c1.672,0.792 2.963,1.921 3.872,3.388c0.939,1.467 1.408,3.197 1.408,5.192c0,2.083 -0.513,3.945 -1.54,5.588c-0.997,1.643 -2.361,2.831 -4.092,3.564l6.072,13.2l-7.172,-0l-5.192,-12.144l-3.08,-0l0,12.144l-6.512,-0Zm6.512,-17.864l3.784,-0c1.467,-0 2.596,-0.367 3.388,-1.1c0.822,-0.733 1.232,-1.76 1.232,-3.08c0,-1.379 -0.41,-2.449 -1.232,-3.212c-0.792,-0.763 -1.921,-1.144 -3.388,-1.144l-3.784,-0l0,8.536Z" style="fill:#8787ae;fill-rule:nonzero;"/><path d="M507.57,54.538l0,-32.12l20.68,-0l0,6.16l-14.168,-0l0,7.128l13.024,-0l0,6.16l-12.936,-0l0,12.672l-6.6,-0Z" style="fill:#8787ae;fill-rule:nonzero;"/></g><g><path d="M481.773,55.316l0,-32.12l10.296,0c2.288,0 4.268,0.396 5.94,1.188c1.672,0.792 2.963,1.922 3.872,3.388c0.939,1.467 1.408,3.198 1.408,5.192c0,2.083 -0.513,3.946 -1.54,5.588c-0.997,1.643 -2.361,2.831 -4.092,3.564l6.072,13.2l-7.172,0l-5.192,-12.144l-3.08,0l0,12.144l-6.512,0Zm6.512,-17.864l3.784,0c1.467,0 2.596,-0.366 3.388,-1.1c0.821,-0.733 1.232,-1.76 1.232,-3.08c0,-1.378 -0.411,-2.449 -1.232,-3.212c-0.792,-0.762 -1.921,-1.144 -3.388,-1.144l-3.784,0l0,8.536Z" style="fill:#3d3d70;fill-rule:nonzero;"/><path d="M508.349,55.316l0,-32.12l20.68,0l0,6.16l-14.168,0l0,7.128l13.024,0l0,6.16l-12.936,0l0,12.672l-6.6,0Z" style="fill:#3d3d70;fill-rule:nonzero;"/></g><g transform="matrix(44,0,0,44,532.448,56.021)"></g><text x="4.448px" y="56.021px" style="font-family:'JetBrainsMono-ExtraBold', 'JetBrains Mono';font-weight:800;font-size:44px;fill:#212140;">Ouverture du pôle RF</text></g><g transform="matrix(48,0,0,48,559.154,329.064)"></g><text x="98.354px" y="329.064px" style="font-family:'JetBrainsMono-ExtraBold', 'JetBrains Mono';font-weight:800;font-size:48px;fill:#fff;">Venez nombreux !</text><path d="M30.082,154.418l565.194,-0l-0,42.593l-516.623,0l-48.571,-42.593Z" style="fill:#fff;"/><g transform="matrix(0.24,0,0,0.24,-57.0544,29.591)"><text x="310.973px" y="492.58px" style="font-family:'JetBrainsMono-Light', 'JetBrains Mono';font-weight:300;font-size:125px;fill:#fff;">Première réunion le</text><text x="610.973px" y="650.914px" style="font-family:'JetBrainsMono-ExtraBold', 'JetBrains Mono';font-weight:800;font-size:125px;fill:#212140;">jeudi 5 décembre à 19h30</text><text x="310.973px" y="809.247px" style="font-family:'JetBrainsMono-Light', 'JetBrains Mono';font-weight:300;font-size:125px;fill:#fff;">au local du</text><text x="1210.97px" y="809.247px" style="font-family:'JetBrainsMono-Bold', 'JetBrains Mono';font-weight:700;font-size:125px;fill:#fff;">Clubelek</text><g transform="matrix(83.3333,0,0,83.3333,2535.97,809.247)"></g><text x="1885.97px" y="809.247px" style="font-family:'JetBrainsMono-Light', 'JetBrains Mono';font-weight:300;font-size:83.333px;fill:#fff;">(bâtiment IF)</text></g><g transform="matrix(0.24,0,0,0.24,-8.00858,0)"><text x="118.623px" y="1826.94px" style="font-family:'JetBrainsMono-ExtraBold', 'JetBrains Mono';font-weight:800;font-size:100px;fill:#fff;">Thèmes</text><text x="538.623px" y="1826.94px" style="font-family:'JetBrainsMono-Regular', 'JetBrains Mono';font-size:100px;fill:#fff;">:</text><text x="658.623px" y="1826.94px" style="font-family:'JetBrainsMono-Light', 'JetBrains Mono';font-weight:300;font-size:100px;fill:#fff;">conception</text><text x="118.883px" y="1926.94px" style="font-family:'JetBrainsMono-Light', 'JetBrains Mono';font-weight:300;font-size:100px;fill:#fff;">d&apos;antenne, électronique</text><text x="119.143px" y="2026.94px" style="font-family:'JetBrainsMono-Light', 'JetBrains Mono';font-weight:300;font-size:100px;fill:#fff;">haute fréquence,</text><text x="119.403px" y="2126.94px" style="font-family:'JetBrainsMono-Light', 'JetBrains Mono';font-weight:300;font-size:100px;fill:#fff;">Radio-amateur,</text><text x="119.663px" y="2226.94px" style="font-family:'JetBrainsMono-Light', 'JetBrains Mono';font-weight:300;font-size:100px;fill:#fff;">RF, SDR, CB,</text><g transform="matrix(100,0,0,100,1070.58,2326.94)"></g><text x="119.923px" y="2326.94px" style="font-family:'JetBrainsMono-Light', 'JetBrains Mono';font-weight:300;font-size:100px;fill:#fff;">réseau, mesh...</text></g><path d="M149.746,834.071l-141.968,-141.968l-0.249,142.825l142.217,-0.857Z" style="fill:#fff;"/><path id="path6" d="M47.223,756.226c1.912,-1.095 3.811,-2.212 5.728,-3.299c0.009,8.749 0.002,17.497 0.004,26.245c-1.252,0.028 -2.506,-0.054 -3.754,0.034c-0.753,0.994 -1.271,2.178 -1.943,3.241c-5.668,-3.261 -11.316,-6.552 -16.987,-9.805c1.819,-1.188 3.764,-2.186 5.627,-3.311c1.912,1.071 3.782,2.217 5.7,3.275c1.868,-1.102 3.764,-2.154 5.62,-3.274c-0.001,-4.368 -0.011,-8.737 0.005,-13.106Z" style="fill:#c6e1d3;fill-rule:nonzero;"/><path id="path8" d="M52.951,752.927c1.871,1.143 3.811,2.169 5.673,3.327c-0.023,4.356 -0.007,8.711 -0.008,13.067c1.872,1.123 3.778,2.187 5.661,3.293c1.882,-1.104 3.789,-2.167 5.664,-3.287c1.914,1.086 3.804,2.213 5.72,3.295c-5.697,3.255 -11.378,6.542 -17.045,9.849c-0.633,-1.1 -1.266,-2.201 -1.904,-3.298c-1.253,-0.003 -2.504,-0.001 -3.757,-0.001c-0.002,-8.748 0.005,-17.496 -0.004,-26.245Z" style="fill:#fcd03d;fill-rule:nonzero;"/><path id="path10" d="M30.227,772.617l0.044,0.025c5.671,3.253 11.319,6.544 16.987,9.805c-0.602,1.105 -1.304,2.158 -1.857,3.288c0.558,1.123 1.251,2.179 1.857,3.281c-7.56,4.367 -15.132,8.719 -22.675,13.116c0.001,-2.183 0.005,-4.367 -0.002,-6.551c3.746,-2.239 7.565,-4.356 11.319,-6.585l-0,-6.53c-1.824,-1.1 -3.687,-2.132 -5.524,-3.207c-0.031,-0.038 -0.093,-0.11 -0.124,-0.146c-0.036,-2.165 0.016,-4.331 -0.025,-6.496Z" style="fill:#1baec2;fill-rule:nonzero;"/><path id="path12" d="M58.616,782.471c5.667,-3.307 11.348,-6.594 17.045,-9.849c0.015,2.179 0.01,4.359 0.003,6.54c-1.919,1.082 -3.811,2.21 -5.728,3.296c-0.015,2.181 -0.007,4.361 -0.003,6.54c3.796,2.194 7.597,4.383 11.39,6.588c0.005,2.186 0,4.371 0.002,6.559c-7.565,-4.393 -15.158,-8.741 -22.714,-13.147c0.633,-1.089 1.256,-2.181 1.89,-3.268c-0.634,-1.083 -1.256,-2.173 -1.885,-3.259Z" style="fill:#ffac78;fill-rule:nonzero;"/><path id="path16" d="M51.02,782.465c0.644,-0.023 1.289,-0.02 1.935,-0.012c-0,1.105 -0.004,2.211 0.003,3.316l-0.046,-0.031c-0.92,-0.577 -1.879,-1.087 -2.806,-1.651c0.304,-0.542 0.605,-1.083 0.914,-1.622Z" style="fill:#c6e1d3;fill-rule:nonzero;"/><path id="path18" d="M52.955,782.453c0.633,-0.003 1.266,-0.011 1.899,0.015c0.272,0.525 0.579,1.03 0.869,1.545c-0.807,0.729 -1.865,1.08 -2.729,1.728l-0.036,0.028c-0.007,-1.105 -0.003,-2.211 -0.003,-3.316Z" style="fill:#fcd03d;fill-rule:nonzero;"/><path id="path20" d="M55.723,784.013c0.328,0.575 0.662,1.148 1.002,1.718c-0.328,0.548 -0.643,1.102 -0.969,1.65c-0.902,-0.579 -1.867,-1.051 -2.762,-1.64c0.864,-0.648 1.922,-0.999 2.729,-1.728Z" style="fill:#ffac78;fill-rule:nonzero;"/><path id="path22" d="M49.152,785.743c0.303,-0.561 0.615,-1.117 0.954,-1.656c0.927,0.564 1.886,1.074 2.806,1.651c-0.936,0.549 -1.881,1.087 -2.817,1.638c-0.323,-0.539 -0.628,-1.089 -0.943,-1.633Z" style="fill:#1baec2;fill-rule:nonzero;"/><path id="path24" d="M52.912,785.738l0.046,0.031c-0.012,1.081 -0.005,2.161 -0.005,3.242l-1.919,0c-0.315,-0.543 -0.621,-1.092 -0.939,-1.635c0.936,-0.551 1.881,-1.089 2.817,-1.638Z" style="fill:#d150ac;fill-rule:nonzero;"/><path id="path26" d="M52.958,785.769l0.036,-0.028c0.895,0.589 1.86,1.061 2.762,1.64c-0.294,0.541 -0.619,1.064 -0.901,1.612c-0.633,0.03 -1.267,0.018 -1.902,0.018c-0,-1.081 -0.007,-2.161 0.005,-3.242Z" style="fill:#ef4178;fill-rule:nonzero;"/><path id="path28" d="M24.583,802.132c7.543,-4.397 15.115,-8.749 22.675,-13.116c0.636,1.091 1.257,2.189 1.899,3.277c1.266,-0.005 2.53,-0 3.796,-0.002c-0.002,3.608 -0,7.217 -0,10.825c-0.008,0.748 -0.026,1.499 0.064,2.243l0.01,0.094c-3.826,-2.18 -7.631,-4.397 -11.44,-6.606c-3.7,2.134 -7.39,4.28 -11.094,6.406c-0.21,0.09 -0.294,0.251 -0.253,0.48c0.002,2.078 0.01,4.157 -0.003,6.235c1.879,1.114 3.793,2.166 5.663,3.295l-0,6.531c-1.875,1.121 -3.771,2.206 -5.673,3.28c0.036,-2.169 -0.008,-4.339 0.023,-6.507c-1.864,-1.146 -3.798,-2.181 -5.667,-3.319c-0.002,4.377 0.01,8.754 -0.005,13.131c-1.916,-1.093 -3.815,-2.213 -5.732,-3.301c-0.001,-4.366 -0.003,-8.731 0,-13.097c1.919,-1.089 3.818,-2.212 5.735,-3.302c0.007,-2.183 0.003,-4.364 0.002,-6.547Z" style="fill:#d150ac;fill-rule:nonzero;"/><path id="path30" d="M56.713,792.289c0.633,-1.097 1.268,-2.192 1.898,-3.291c7.556,4.406 15.149,8.754 22.714,13.147c-0.002,2.178 0.005,4.356 -0.003,6.535c1.868,1.145 3.812,2.166 5.672,3.328c-0.018,4.349 -0.015,8.699 -0.002,13.048c-1.862,1.151 -3.796,2.185 -5.669,3.316c0,-4.377 0.009,-8.754 -0.005,-13.132c-1.884,1.082 -3.753,2.192 -5.649,3.253c0.002,2.201 -0.007,4.403 0.005,6.606c-1.934,-1.087 -3.851,-2.203 -5.758,-3.329c0.018,-2.162 0.017,-4.321 0,-6.481c1.904,-1.132 3.828,-2.232 5.748,-3.334c0.003,-2.176 0.003,-4.354 0.002,-6.53c-3.803,-2.184 -7.593,-4.387 -11.391,-6.578c-3.747,2.181 -7.506,4.343 -11.258,6.512c-0.09,-0.744 -0.072,-1.495 -0.064,-2.243c-0,-3.608 -0.002,-7.217 -0,-10.825c1.253,-0.002 2.506,0.002 3.76,-0.002Z" style="fill:#ef4178;fill-rule:nonzero;"/><defs><linearGradient id="_Linear2" x1="0" y1="0" x2="1" y2="0" gradientUnits="userSpaceOnUse" gradientTransform="matrix(5.37791e-14,859.188,-878.279,5.26101e-14,272.517,-1.55982)"><stop offset="0" style="stop-color:#212140;stop-opacity:1"/><stop offset="0.52" style="stop-color:#2a2a4c;stop-opacity:1"/><stop offset="1" style="stop-color:#474775;stop-opacity:1"/></linearGradient></defs></svg>